<?xml version="1.0" encoding="UTF-8" ?>
<!DOCTYPE svg PUBLIC "-//W3C//DTD SVG 1.1//EN" "http://www.w3.org/Graphics/SVG/1.1/DTD/svg11.dtd">
<svg width="225pt" height="225pt" viewBox="0 0 225 225" version="1.1" xmlns="http://www.w3.org/2000/svg">
<g id="#fdfaffff">
</g>
<g id="#1c1c4eff">
<path fill="#1c1c4e" opacity="1.00" d=" M 105.46 41.76 C 137.89 37.71 170.91 59.12 180.86 90.16 C 191.91 121.09 178.26 158.35 149.80 174.75 C 124.50 190.45 89.21 187.97 66.81 168.20 C 64.31 166.44 63.56 161.76 67.60 161.65 C 86.04 160.71 104.58 161.67 123.05 161.18 C 133.25 160.50 141.88 151.22 141.90 141.02 C 142.38 130.20 132.87 120.08 122.00 120.03 C 97.04 119.94 72.06 120.05 47.10 119.98 C 43.55 119.93 39.73 116.08 41.37 112.48 C 42.33 109.78 45.39 108.89 47.98 108.85 C 65.32 108.77 82.66 108.90 100.00 108.79 C 110.10 108.94 119.46 100.60 120.41 90.53 C 122.07 79.41 112.87 68.31 101.71 67.63 C 89.19 67.08 76.59 68.10 64.09 67.10 C 60.21 65.51 63.36 61.18 65.31 59.30 C 76.33 49.36 90.69 43.13 105.46 41.76 Z" />
</g>
</svg>
