<?xml version="1.0" encoding="utf-8"?>
<!-- Generator: Adobe Illustrator 27.4.0, SVG Export Plug-In . SVG Version: 6.00 Build 0)  -->
<svg version="1.1" xmlns="http://www.w3.org/2000/svg" xmlns:xlink="http://www.w3.org/1999/xlink" x="0px" y="0px"
	 viewBox="0 0 225 225" style="enable-background:new 0 0 225 225;" xml:space="preserve">
<style type="text/css">
	.st0{fill:#FFFFFF;}
	.st1{fill:#1C1C4E;}
</style>
<g id="Layer_2">
	<circle class="st0" cx="112.8" cy="113.1" r="82.8"/>
</g>
<g id="Layer_1">
	<g id="_x23_fdfaffff">
	</g>
	<g id="_x23_1c1c4eff">
		<path class="st1" d="M105.5,41.8c32.4-4,65.5,17.4,75.4,48.4c11.1,30.9-2.6,68.2-31.1,84.6c-25.3,15.7-60.6,13.2-83-6.6
			c-2.5-1.8-3.2-6.4,0.8-6.6c18.4-0.9,37,0,55.5-0.5c10.2-0.7,18.8-10,18.8-20.2c0.5-10.8-9-20.9-19.9-21c-25-0.1-49.9,0-74.9,0
			c-3.5-0.1-7.4-3.9-5.7-7.5c1-2.7,4-3.6,6.6-3.6c17.3-0.1,34.7,0.1,52-0.1c10.1,0.2,19.5-8.2,20.4-18.3
			c1.7-11.1-7.5-22.2-18.7-22.9c-12.5-0.5-25.1,0.5-37.6-0.5c-3.9-1.6-0.7-5.9,1.2-7.8C76.3,49.4,90.7,43.1,105.5,41.8z"/>
	</g>
</g>
</svg>
